<?xml version="1.0" encoding="UTF-8" standalone="no"?>
<!-- Created with Inkscape (http://www.inkscape.org/) -->

<svg
   xmlns:dc="http://purl.org/dc/elements/1.1/"
   xmlns:cc="http://creativecommons.org/ns#"
   xmlns:rdf="http://www.w3.org/1999/02/22-rdf-syntax-ns#"
   xmlns:svg="http://www.w3.org/2000/svg"
   xmlns="http://www.w3.org/2000/svg"
   xmlns:sodipodi="http://sodipodi.sourceforge.net/DTD/sodipodi-0.dtd"
   xmlns:inkscape="http://www.inkscape.org/namespaces/inkscape"
   width="27mm"
   height="24mm"
   viewBox="0 0 95.669293 85.03937"
   id="svg11486"
   version="1.1"
   inkscape:version="0.91 r13725"
   sodipodi:docname="pointer.svg">
  <defs
     id="defs11488" />
  <sodipodi:namedview
     id="base"
     pagecolor="#ffffff"
     bordercolor="#666666"
     borderopacity="1.0"
     inkscape:pageopacity="0.0"
     inkscape:pageshadow="2"
     inkscape:zoom="7.9195959"
     inkscape:cx="54.30936"
     inkscape:cy="43.125192"
     inkscape:document-units="px"
     inkscape:current-layer="layer1"
     showgrid="false"
     fit-margin-top="0"
     fit-margin-left="0"
     fit-margin-right="0"
     fit-margin-bottom="0"
     inkscape:window-width="1920"
     inkscape:window-height="1027"
     inkscape:window-x="0"
     inkscape:window-y="0"
     inkscape:window-maximized="1" />
  <metadata
     id="metadata11491">
    <rdf:RDF>
      <cc:Work
         rdf:about="">
        <dc:format>image/svg+xml</dc:format>
        <dc:type
           rdf:resource="http://purl.org/dc/dcmitype/StillImage" />
        <dc:title></dc:title>
      </cc:Work>
    </rdf:RDF>
  </metadata>
  <g
     inkscape:label="Layer 1"
     inkscape:groupmode="layer"
     id="layer1"
     transform="translate(-1459.087,246.097)">
    <g
       transform="matrix(0.22138896,0,0,0.22138896,1469.3174,-247.47255)"
       id="g3">
      <g
         id="g5" />
    </g>
    <path
       style="fill:#ffb380;fill-opacity:1;stroke:#ff685e;stroke-width:2.87759733;stroke-miterlimit:4;stroke-dasharray:none;stroke-dashoffset:0;stroke-opacity:1"
       d="m 1494.2608,-162.57812 c -3.2949,-0.63924 -7.027,-2.3416 -10.2355,-4.6688 -2.013,-1.46006 -21.0966,-22.7903 -22.0485,-24.64406 -0.8986,-1.75039 -1.037,-4.77859 -0.3067,-6.71557 0.6825,-1.81034 2.333,-3.62342 4.0791,-4.48085 1.2187,-0.59843 1.6525,-0.67835 3.6826,-0.67835 3.2146,0 4.3615,0.58318 7.2056,3.66405 l 2.1206,2.29711 0.1216,-20.17922 0.1217,-20.17921 0.6711,-1.36657 c 0.7447,-1.5164 2.2675,-3.05437 3.7964,-3.83435 4.1213,-2.10263 9.343,-0.23456 11.3577,4.06327 l 0.6468,1.37988 0.072,10.86143 c 0.068,10.11514 0.1003,10.84988 0.4845,10.69324 2.6459,-1.07938 5.2994,-1.11558 7.4371,-0.10135 1.4283,0.67765 3.2336,2.40595 3.8262,3.66329 l 0.421,0.89308 1.3591,-0.62217 c 1.9486,-0.89214 4.5437,-0.88119 6.5351,0.0277 2.3032,1.05118 4.2467,3.29326 4.7814,5.51632 l 0.1568,0.65204 1.1221,-0.49634 c 3.9708,-1.75643 8.8934,0.22631 10.8227,4.35919 0.5169,1.10707 0.5297,1.38637 0.6013,13.12175 0.05,8.07711 -0.014,12.50235 -0.1982,13.55857 -1.0176,5.88143 -6.1467,11.06327 -12.7682,12.89963 -1.785,0.49503 -2.463,0.52544 -13.0257,0.58382 -8.6018,0.0476 -11.5297,-0.0132 -12.8385,-0.26735 z"
       id="path4815-3"
       inkscape:connector-curvature="0" />
  </g>
</svg>
