<?xml version="1.0" encoding="UTF-8" standalone="no"?>
<!-- Created with Inkscape (http://www.inkscape.org/) -->

<svg
   xmlns:dc="http://purl.org/dc/elements/1.1/"
   xmlns:cc="http://creativecommons.org/ns#"
   xmlns:rdf="http://www.w3.org/1999/02/22-rdf-syntax-ns#"
   xmlns:svg="http://www.w3.org/2000/svg"
   xmlns="http://www.w3.org/2000/svg"
   xmlns:sodipodi="http://sodipodi.sourceforge.net/DTD/sodipodi-0.dtd"
   xmlns:inkscape="http://www.inkscape.org/namespaces/inkscape"
   width="25.778761mm"
   height="20.080898mm"
   viewBox="0 0 91.342066 71.152789"
   id="svg11486"
   version="1.1"
   inkscape:version="0.91 r13725"
   sodipodi:docname="turn_left.svg">
  <defs
     id="defs11488" />
  <sodipodi:namedview
     id="base"
     pagecolor="#ffffff"
     bordercolor="#666666"
     borderopacity="1.0"
     inkscape:pageopacity="0.0"
     inkscape:pageshadow="2"
     inkscape:zoom="2.8"
     inkscape:cx="-24.513334"
     inkscape:cy="-53.819682"
     inkscape:document-units="px"
     inkscape:current-layer="layer1"
     showgrid="false"
     fit-margin-top="0"
     fit-margin-left="0"
     fit-margin-right="0"
     fit-margin-bottom="0"
     inkscape:window-width="1920"
     inkscape:window-height="1027"
     inkscape:window-x="0"
     inkscape:window-y="0"
     inkscape:window-maximized="1" />
  <metadata
     id="metadata11491">
    <rdf:RDF>
      <cc:Work
         rdf:about="">
        <dc:format>image/svg+xml</dc:format>
        <dc:type
           rdf:resource="http://purl.org/dc/dcmitype/StillImage" />
        <dc:title></dc:title>
      </cc:Work>
    </rdf:RDF>
  </metadata>
  <g
     inkscape:label="Layer 1"
     inkscape:groupmode="layer"
     id="layer1"
     transform="translate(-1596.8233,368.19981)">
    <g
       style="stroke:#241c1c;stroke-width:0.40000001;stroke-miterlimit:4;stroke-dasharray:none"
       id="g6760"
       transform="translate(554.0122,1104.7701)"
       inkscape:export-filename="/home/cesar/hd/Dropbox/TTC/TTC/3 - Implementação/web/rope2/src/assets/turn_left.png"
       inkscape:export-xdpi="90"
       inkscape:export-ydpi="90">
      <path
         transform="translate(0,-308.26772)"
         inkscape:connector-curvature="0"
         id="path6762"
         d="m 1043.0111,-1108.4605 0,-14.7111 1.5895,-0.1495 c 1.9175,-0.1803 2.9371,0.041 4.6062,0.9999 4.1833,2.4032 9.008,0.8366 10.9305,-3.5492 0.5698,-1.3 0.5024,-3.9404 -0.1376,-5.3935 -1.1282,-2.5609 -3.4685,-4.1939 -6.2741,-4.3777 -1.6643,-0.1089 -2.4512,0.095 -6.5936,1.7119 -1.0118,0.3949 -2.205,0.479 -3.385,0.2388 l -0.7359,-0.1498 0,-14.9519 0,-14.9518 c 14.7041,-0.02 16.0038,0 72.5291,0 l 0,15.2215 0,15.2215 1.9117,0 c 1.7293,0 2.1141,-0.093 4.0354,-0.9734 1.1681,-0.5354 2.6747,-1.0861 3.348,-1.2237 3.3795,-0.6909 7.2499,1.756 8.1535,5.1546 0.6511,2.4491 -0.2869,5.5582 -2.1729,7.2014 -2.2616,1.9706 -5.7282,2.3926 -8.1215,0.9887 -2.5474,-1.4942 -2.7328,-1.5593 -4.437,-1.5559 -0.9116,0 -1.8959,0.068 -2.1873,0.1478 l -0.5299,0.1445 0,14.834 0,14.834 -36.2646,0 -36.2645,0 z"
         style="fill:#6c5353;fill-opacity:1;fill-rule:nonzero;stroke:#241c1c;stroke-width:0.40000001;stroke-miterlimit:4;stroke-dasharray:none;stroke-dashoffset:0;stroke-opacity:0.60824741"
         sodipodi:nodetypes="ccccsssccccccccsccscscccccccc" />
      <circle
         r="4.4952621"
         cy="-1114.4408"
         cx="-1070.8306"
         id="circle6764"
         style="fill:#6c5353;fill-opacity:1;fill-rule:nonzero;stroke:#241c1c;stroke-width:0.40000001;stroke-miterlimit:4;stroke-dasharray:none;stroke-dashoffset:0;stroke-opacity:0.60824741"
         transform="matrix(-1,0,0,1,0,-308.26772)" />
      <path
         transform="translate(0,-308.26772)"
         sodipodi:nodetypes="ccccsssccccccccsccscscccccccc"
         style="fill:#ff685e;fill-opacity:1;fill-rule:nonzero;stroke:#241c1c;stroke-width:0.40000001;stroke-miterlimit:4;stroke-dasharray:none;stroke-dashoffset:0;stroke-opacity:1"
         d="m 1043.7668,-1109.2094 0,-14.7111 1.5895,-0.1495 c 1.9176,-0.1803 2.9371,0.041 4.6063,0.9999 4.1832,2.4032 9.008,0.8366 10.9304,-3.5492 0.5698,-1.3 0.5025,-3.9404 -0.1376,-5.3935 -1.1281,-2.5609 -3.4684,-4.1939 -6.274,-4.3777 -1.6644,-0.1089 -2.4512,0.095 -6.5936,1.7119 -1.0118,0.3949 -2.2051,0.479 -3.3851,0.2388 l -0.7359,-0.1498 0,-14.9519 0,-14.9518 c 14.7042,-0.02 16.0039,0 72.5292,0 l 0,15.2215 0,15.2215 1.9116,0 c 1.7294,0 2.1141,-0.093 4.0355,-0.9734 1.168,-0.5354 2.6747,-1.0861 3.348,-1.2237 3.3794,-0.6909 7.2499,1.756 8.1534,5.1546 0.6512,2.4491 -0.2869,5.5582 -2.1728,7.2014 -2.2616,1.9706 -5.7283,2.3926 -8.1215,0.9887 -2.5474,-1.4942 -2.7329,-1.5593 -4.4371,-1.5559 -0.9116,0 -1.8959,0.068 -2.1873,0.1478 l -0.5298,0.1445 0,14.834 0,14.834 -36.2646,0 -36.2646,0 z"
         id="path6766"
         inkscape:connector-curvature="0" />
      <g
         id="g6768"
         transform="matrix(-0.40817793,0,0,0.40817793,1009.9131,-2038.0683)"
         style="fill:#361e1a;fill-opacity:1;stroke:#241c1c;stroke-width:0.97996479;stroke-miterlimit:4;stroke-dasharray:none">
        <g
           id="g6770"
           transform="matrix(-4.4557919,-4.4734336,4.6493135,-4.2872328,-182.63534,1542.0661)"
           style="fill:#361e1a;fill-opacity:1;stroke:#241c1c;stroke-width:0.15513735;stroke-miterlimit:4;stroke-dasharray:none">
          <g
             id="g6772"
             style="fill:#361e1a;fill-opacity:1;stroke:#241c1c;stroke-width:0.15513735;stroke-miterlimit:4;stroke-dasharray:none">
            <path
               id="path6774"
               d="M 13.922,5 C 13.425,2 11.436,0 6.961,0 1.492,0 0,4.5 0,5 2.983,2.5 4.973,2 6.961,2 8.95,2 9.943,3.5 9.943,5 c 0,1 -0.496,2 -1.988,3 l -2.982,-3 0,9 8.949,0 -2.982,-3 c 1.492,-1 3.479,-3.5 2.982,-6 z"
               inkscape:connector-curvature="0"
               style="fill:#361e1a;fill-opacity:1;stroke:#241c1c;stroke-width:0.15513735;stroke-miterlimit:4;stroke-dasharray:none" />
          </g>
          <g
             id="g6776"
             style="fill:#361e1a;fill-opacity:1;stroke:#241c1c;stroke-width:0.15513735;stroke-miterlimit:4;stroke-dasharray:none" />
          <g
             id="g6778"
             style="fill:#361e1a;fill-opacity:1;stroke:#241c1c;stroke-width:0.15513735;stroke-miterlimit:4;stroke-dasharray:none" />
          <g
             id="g6780"
             style="fill:#361e1a;fill-opacity:1;stroke:#241c1c;stroke-width:0.15513735;stroke-miterlimit:4;stroke-dasharray:none" />
          <g
             id="g6782"
             style="fill:#361e1a;fill-opacity:1;stroke:#241c1c;stroke-width:0.15513735;stroke-miterlimit:4;stroke-dasharray:none" />
          <g
             id="g6784"
             style="fill:#361e1a;fill-opacity:1;stroke:#241c1c;stroke-width:0.15513735;stroke-miterlimit:4;stroke-dasharray:none" />
          <g
             id="g6786"
             style="fill:#361e1a;fill-opacity:1;stroke:#241c1c;stroke-width:0.15513735;stroke-miterlimit:4;stroke-dasharray:none" />
          <g
             id="g6788"
             style="fill:#361e1a;fill-opacity:1;stroke:#241c1c;stroke-width:0.15513735;stroke-miterlimit:4;stroke-dasharray:none" />
          <g
             id="g6790"
             style="fill:#361e1a;fill-opacity:1;stroke:#241c1c;stroke-width:0.15513735;stroke-miterlimit:4;stroke-dasharray:none" />
          <g
             id="g6792"
             style="fill:#361e1a;fill-opacity:1;stroke:#241c1c;stroke-width:0.15513735;stroke-miterlimit:4;stroke-dasharray:none" />
          <g
             id="g6794"
             style="fill:#361e1a;fill-opacity:1;stroke:#241c1c;stroke-width:0.15513735;stroke-miterlimit:4;stroke-dasharray:none" />
          <g
             id="g6796"
             style="fill:#361e1a;fill-opacity:1;stroke:#241c1c;stroke-width:0.15513735;stroke-miterlimit:4;stroke-dasharray:none" />
          <g
             id="g6798"
             style="fill:#361e1a;fill-opacity:1;stroke:#241c1c;stroke-width:0.15513735;stroke-miterlimit:4;stroke-dasharray:none" />
          <g
             id="g6800"
             style="fill:#361e1a;fill-opacity:1;stroke:#241c1c;stroke-width:0.15513735;stroke-miterlimit:4;stroke-dasharray:none" />
          <g
             id="g6802"
             style="fill:#361e1a;fill-opacity:1;stroke:#241c1c;stroke-width:0.15513735;stroke-miterlimit:4;stroke-dasharray:none" />
          <g
             id="g6804"
             style="fill:#361e1a;fill-opacity:1;stroke:#241c1c;stroke-width:0.15513735;stroke-miterlimit:4;stroke-dasharray:none" />
        </g>
        <circle
           r="11.012997"
           cy="1505.7427"
           cx="-151.09415"
           id="circle6806"
           style="fill:#361e1a;fill-opacity:1;fill-rule:nonzero;stroke:#241c1c;stroke-width:0.97996479;stroke-miterlimit:4;stroke-dasharray:none;stroke-dashoffset:0;stroke-opacity:1" />
      </g>
    </g>
  </g>
</svg>
